<svg width="684" height="74" viewBox="0 0 684 74" fill="none" xmlns="http://www.w3.org/2000/svg">
<path d="M59.0511 54H51.142L63.1932 19.0909H72.7045L84.7386 54H76.8295L68.0852 27.0682H67.8125L59.0511 54ZM58.5568 40.2784H77.2386V46.0398H58.5568V40.2784ZM88.324 54V27.8182H95.3638V32.3864H95.6365C96.1138 30.7614 96.9149 29.5341 98.0399 28.7045C99.1649 27.8636 100.46 27.4432 101.926 27.4432C102.29 27.4432 102.682 27.4659 103.102 27.5114C103.523 27.5568 103.892 27.6193 104.21 27.6989V34.142C103.869 34.0398 103.398 33.9489 102.796 33.8693C102.193 33.7898 101.642 33.75 101.142 33.75C100.074 33.75 99.1194 33.983 98.2785 34.4489C97.449 34.9034 96.7899 35.5398 96.3013 36.358C95.824 37.1761 95.5853 38.1193 95.5853 39.1875V54H88.324ZM118.095 54.5114C115.414 54.5114 113.107 53.9432 111.175 52.8068C109.254 51.6591 107.777 50.0682 106.743 48.0341C105.72 46 105.209 43.6591 105.209 41.0114C105.209 38.3295 105.726 35.9773 106.76 33.9545C107.806 31.9205 109.289 30.3352 111.209 29.1989C113.129 28.0511 115.414 27.4773 118.061 27.4773C120.345 27.4773 122.345 27.892 124.061 28.7216C125.777 29.5511 127.135 30.7159 128.135 32.2159C129.135 33.7159 129.686 35.4773 129.789 37.5H122.936C122.743 36.1932 122.232 35.142 121.402 34.3466C120.584 33.5398 119.51 33.1364 118.181 33.1364C117.056 33.1364 116.073 33.4432 115.232 34.0568C114.402 34.6591 113.754 35.5398 113.289 36.6989C112.823 37.858 112.59 39.2614 112.59 40.9091C112.59 42.5795 112.817 44 113.272 45.1705C113.737 46.3409 114.391 47.233 115.232 47.8466C116.073 48.4602 117.056 48.767 118.181 48.767C119.01 48.767 119.754 48.5966 120.414 48.2557C121.084 47.9148 121.635 47.4205 122.067 46.7727C122.51 46.1136 122.8 45.3239 122.936 44.4034H129.789C129.675 46.4034 129.129 48.1648 128.152 49.6875C127.186 51.1989 125.851 52.3807 124.147 53.233C122.442 54.0852 120.425 54.5114 118.095 54.5114ZM141.219 38.8636V54H133.958V19.0909H141.015V32.4375H141.321C141.912 30.892 142.867 29.6818 144.185 28.8068C145.503 27.9205 147.157 27.4773 149.145 27.4773C150.963 27.4773 152.549 27.875 153.901 28.6705C155.265 29.4545 156.321 30.5852 157.071 32.0625C157.833 33.5284 158.208 35.2841 158.196 37.3295V54H150.935V38.625C150.946 37.0114 150.537 35.7557 149.708 34.858C148.89 33.9602 147.742 33.5114 146.265 33.5114C145.276 33.5114 144.401 33.7216 143.64 34.142C142.89 34.5625 142.299 35.1761 141.867 35.983C141.446 36.7784 141.23 37.7386 141.219 38.8636ZM163.431 54V27.8182H170.692V54H163.431ZM167.079 24.4432C165.999 24.4432 165.073 24.0852 164.3 23.3693C163.539 22.642 163.158 21.7727 163.158 20.7614C163.158 19.7614 163.539 18.9034 164.3 18.1875C165.073 17.4602 165.999 17.0966 167.079 17.0966C168.158 17.0966 169.079 17.4602 169.84 18.1875C170.613 18.9034 170.999 19.7614 170.999 20.7614C170.999 21.7727 170.613 22.642 169.84 23.3693C169.079 24.0852 168.158 24.4432 167.079 24.4432ZM189.955 27.8182V33.2727H174.188V27.8182H189.955ZM177.768 21.5455H185.029V45.9545C185.029 46.625 185.131 47.1477 185.336 47.5227C185.54 47.8864 185.824 48.142 186.188 48.2898C186.563 48.4375 186.995 48.5114 187.484 48.5114C187.824 48.5114 188.165 48.483 188.506 48.4261C188.847 48.358 189.109 48.3068 189.29 48.2727L190.432 53.6761C190.069 53.7898 189.557 53.9205 188.898 54.0682C188.239 54.2273 187.438 54.3239 186.495 54.358C184.745 54.4261 183.211 54.1932 181.893 53.6591C180.586 53.125 179.569 52.2955 178.841 51.1705C178.114 50.0455 177.756 48.625 177.768 46.9091V21.5455ZM205.856 54.5114C203.163 54.5114 200.844 53.9659 198.901 52.875C196.969 51.7727 195.481 50.2159 194.435 48.2045C193.39 46.1818 192.867 43.7898 192.867 41.0284C192.867 38.3352 193.39 35.9716 194.435 33.9375C195.481 31.9034 196.952 30.3182 198.85 29.1818C200.759 28.0455 202.998 27.4773 205.566 27.4773C207.293 27.4773 208.901 27.7557 210.39 28.3125C211.89 28.858 213.197 29.6818 214.31 30.7841C215.435 31.8864 216.31 33.2727 216.935 34.9432C217.56 36.6023 217.873 38.5455 217.873 40.7727V42.767H195.765V38.267H211.038C211.038 37.2216 210.81 36.2955 210.356 35.4886C209.901 34.6818 209.271 34.0511 208.464 33.5966C207.668 33.1307 206.742 32.8977 205.685 32.8977C204.583 32.8977 203.606 33.1534 202.754 33.6648C201.913 34.1648 201.254 34.8409 200.776 35.6932C200.299 36.5341 200.055 37.4716 200.043 38.5057V42.7841C200.043 44.0795 200.282 45.1989 200.759 46.142C201.248 47.0852 201.935 47.8125 202.822 48.3239C203.708 48.8352 204.759 49.0909 205.975 49.0909C206.782 49.0909 207.521 48.9773 208.191 48.75C208.861 48.5227 209.435 48.1818 209.913 47.7273C210.39 47.2727 210.754 46.7159 211.004 46.0568L217.719 46.5C217.379 48.1136 216.68 49.5227 215.623 50.7273C214.577 51.9205 213.225 52.8523 211.566 53.5227C209.918 54.1818 208.015 54.5114 205.856 54.5114ZM233.961 54.5114C231.279 54.5114 228.972 53.9432 227.041 52.8068C225.12 51.6591 223.643 50.0682 222.609 48.0341C221.586 46 221.075 43.6591 221.075 41.0114C221.075 38.3295 221.592 35.9773 222.626 33.9545C223.671 31.9205 225.154 30.3352 227.075 29.1989C228.995 28.0511 231.279 27.4773 233.927 27.4773C236.211 27.4773 238.211 27.892 239.927 28.7216C241.643 29.5511 243.001 30.7159 244.001 32.2159C245.001 33.7159 245.552 35.4773 245.654 37.5H238.802C238.609 36.1932 238.097 35.142 237.268 34.3466C236.45 33.5398 235.376 33.1364 234.046 33.1364C232.921 33.1364 231.938 33.4432 231.097 34.0568C230.268 34.6591 229.62 35.5398 229.154 36.6989C228.688 37.858 228.455 39.2614 228.455 40.9091C228.455 42.5795 228.683 44 229.137 45.1705C229.603 46.3409 230.256 47.233 231.097 47.8466C231.938 48.4602 232.921 48.767 234.046 48.767C234.876 48.767 235.62 48.5966 236.279 48.2557C236.95 47.9148 237.501 47.4205 237.933 46.7727C238.376 46.1136 238.666 45.3239 238.802 44.4034H245.654C245.541 46.4034 244.995 48.1648 244.018 49.6875C243.052 51.1989 241.717 52.3807 240.012 53.233C238.308 54.0852 236.291 54.5114 233.961 54.5114ZM263.749 27.8182V33.2727H247.982V27.8182H263.749ZM251.562 21.5455H258.823V45.9545C258.823 46.625 258.926 47.1477 259.13 47.5227C259.335 47.8864 259.619 48.142 259.982 48.2898C260.357 48.4375 260.789 48.5114 261.278 48.5114C261.619 48.5114 261.96 48.483 262.301 48.4261C262.642 48.358 262.903 48.3068 263.085 48.2727L264.227 53.6761C263.863 53.7898 263.352 53.9205 262.693 54.0682C262.034 54.2273 261.232 54.3239 260.289 54.358C258.539 54.4261 257.005 54.1932 255.687 53.6591C254.38 53.125 253.363 52.2955 252.636 51.1705C251.909 50.0455 251.551 48.625 251.562 46.9091V21.5455ZM289.456 35.2841L282.808 35.6932C282.694 35.125 282.45 34.6136 282.075 34.1591C281.7 33.6932 281.206 33.3239 280.592 33.0511C279.99 32.767 279.268 32.625 278.427 32.625C277.302 32.625 276.353 32.8636 275.581 33.3409C274.808 33.8068 274.421 34.4318 274.421 35.2159C274.421 35.8409 274.671 36.3693 275.171 36.8011C275.671 37.233 276.529 37.5795 277.745 37.8409L282.484 38.7955C285.029 39.3182 286.927 40.1591 288.177 41.3182C289.427 42.4773 290.052 44 290.052 45.8864C290.052 47.6023 289.546 49.108 288.535 50.4034C287.535 51.6989 286.16 52.7102 284.41 53.4375C282.671 54.1534 280.666 54.5114 278.393 54.5114C274.927 54.5114 272.166 53.7898 270.109 52.3466C268.064 50.892 266.865 48.9148 266.512 46.4148L273.654 46.0398C273.87 47.0966 274.393 47.9034 275.223 48.4602C276.052 49.0057 277.115 49.2784 278.41 49.2784C279.683 49.2784 280.706 49.0341 281.478 48.5455C282.262 48.0455 282.66 47.4034 282.671 46.6193C282.66 45.9602 282.382 45.4205 281.836 45C281.291 44.5682 280.45 44.2386 279.314 44.0114L274.779 43.108C272.223 42.5966 270.319 41.7102 269.069 40.4489C267.831 39.1875 267.211 37.5795 267.211 35.625C267.211 33.9432 267.666 32.4943 268.575 31.2784C269.495 30.0625 270.785 29.125 272.444 28.4659C274.115 27.8068 276.069 27.4773 278.308 27.4773C281.615 27.4773 284.217 28.1761 286.115 29.5739C288.024 30.9716 289.137 32.875 289.456 35.2841ZM316.604 54.5114C313.956 54.5114 311.666 53.9489 309.734 52.8239C307.814 51.6875 306.331 50.108 305.285 48.0852C304.24 46.0511 303.717 43.6932 303.717 41.0114C303.717 38.3068 304.24 35.9432 305.285 33.9205C306.331 31.8864 307.814 30.3068 309.734 29.1818C311.666 28.0455 313.956 27.4773 316.604 27.4773C319.251 27.4773 321.535 28.0455 323.456 29.1818C325.388 30.3068 326.876 31.8864 327.922 33.9205C328.967 35.9432 329.49 38.3068 329.49 41.0114C329.49 43.6932 328.967 46.0511 327.922 48.0852C326.876 50.108 325.388 51.6875 323.456 52.8239C321.535 53.9489 319.251 54.5114 316.604 54.5114ZM316.638 48.8864C317.842 48.8864 318.848 48.5455 319.655 47.8636C320.461 47.1705 321.069 46.2273 321.479 45.0341C321.899 43.8409 322.109 42.483 322.109 40.9602C322.109 39.4375 321.899 38.0795 321.479 36.8864C321.069 35.6932 320.461 34.75 319.655 34.0568C318.848 33.3636 317.842 33.017 316.638 33.017C315.422 33.017 314.399 33.3636 313.569 34.0568C312.751 34.75 312.132 35.6932 311.711 36.8864C311.302 38.0795 311.098 39.4375 311.098 40.9602C311.098 42.483 311.302 43.8409 311.711 45.0341C312.132 46.2273 312.751 47.1705 313.569 47.8636C314.399 48.5455 315.422 48.8864 316.638 48.8864ZM347.811 27.8182V33.2727H331.652V27.8182H347.811ZM335.351 54V25.9261C335.351 24.0284 335.72 22.4545 336.459 21.2045C337.209 19.9545 338.231 19.017 339.527 18.392C340.822 17.767 342.294 17.4545 343.942 17.4545C345.055 17.4545 346.072 17.5398 346.993 17.7102C347.925 17.8807 348.618 18.0341 349.072 18.1705L347.777 23.625C347.493 23.5341 347.141 23.4489 346.72 23.3693C346.311 23.2898 345.891 23.25 345.459 23.25C344.391 23.25 343.646 23.5 343.226 24C342.805 24.4886 342.595 25.1761 342.595 26.0625V54H335.351ZM393.334 31.3125H385.868C385.732 30.3466 385.453 29.4886 385.033 28.7386C384.612 27.9773 384.073 27.3295 383.414 26.7955C382.754 26.2614 381.993 25.8523 381.129 25.5682C380.277 25.2841 379.351 25.142 378.351 25.142C376.544 25.142 374.97 25.5909 373.629 26.4886C372.289 27.375 371.249 28.6705 370.51 30.375C369.771 32.0682 369.402 34.125 369.402 36.5455C369.402 39.0341 369.771 41.125 370.51 42.8182C371.26 44.5114 372.306 45.7898 373.646 46.6534C374.987 47.517 376.539 47.9489 378.3 47.9489C379.289 47.9489 380.203 47.8182 381.044 47.5568C381.896 47.2955 382.652 46.9148 383.311 46.4148C383.97 45.9034 384.516 45.2841 384.948 44.5568C385.391 43.8295 385.698 43 385.868 42.0682L393.334 42.1023C393.141 43.7045 392.658 45.25 391.885 46.7386C391.124 48.2159 390.095 49.5398 388.8 50.7102C387.516 51.8693 385.982 52.7898 384.198 53.4716C382.425 54.142 380.419 54.4773 378.181 54.4773C375.067 54.4773 372.283 53.7727 369.828 52.3636C367.385 50.9545 365.453 48.9148 364.033 46.2443C362.624 43.5739 361.919 40.3409 361.919 36.5455C361.919 32.7386 362.635 29.5 364.067 26.8295C365.499 24.1591 367.442 22.125 369.896 20.7273C372.351 19.3182 375.112 18.6136 378.181 18.6136C380.203 18.6136 382.078 18.8977 383.806 19.4659C385.544 20.0341 387.084 20.8636 388.425 21.9545C389.766 23.0341 390.857 24.358 391.698 25.9261C392.55 27.4943 393.095 29.2898 393.334 31.3125ZM402.821 63.8182C401.901 63.8182 401.037 63.7443 400.23 63.5966C399.435 63.4602 398.776 63.2841 398.253 63.0682L399.889 57.6477C400.742 57.9091 401.509 58.0511 402.191 58.0739C402.884 58.0966 403.48 57.9375 403.98 57.5966C404.492 57.2557 404.907 56.6761 405.225 55.858L405.651 54.75L396.259 27.8182H403.895L409.316 47.0455H409.588L415.06 27.8182H422.747L412.571 56.8295C412.083 58.2386 411.418 59.4659 410.577 60.5114C409.747 61.5682 408.696 62.3807 407.424 62.9489C406.151 63.5284 404.617 63.8182 402.821 63.8182ZM426.12 54V19.0909H433.381V32.2159H433.603C433.921 31.5114 434.381 30.7955 434.983 30.0682C435.597 29.3295 436.392 28.7159 437.37 28.2273C438.358 27.7273 439.586 27.4773 441.052 27.4773C442.961 27.4773 444.722 27.9773 446.336 28.9773C447.949 29.9659 449.239 31.4602 450.205 33.4602C451.171 35.4489 451.654 37.9432 451.654 40.9432C451.654 43.8636 451.182 46.3295 450.239 48.3409C449.307 50.3409 448.034 51.858 446.421 52.892C444.819 53.9148 443.023 54.4261 441.034 54.4261C439.625 54.4261 438.427 54.1932 437.438 53.7273C436.461 53.2614 435.659 52.6761 435.034 51.9716C434.409 51.2557 433.932 50.5341 433.603 49.8068H433.279V54H426.12ZM433.228 40.9091C433.228 42.4659 433.444 43.8239 433.875 44.983C434.307 46.142 434.932 47.0455 435.75 47.6932C436.569 48.3295 437.563 48.6477 438.733 48.6477C439.915 48.6477 440.915 48.3239 441.733 47.6761C442.552 47.017 443.171 46.108 443.591 44.9489C444.023 43.7784 444.239 42.4318 444.239 40.9091C444.239 39.3977 444.029 38.0682 443.608 36.9205C443.188 35.7727 442.569 34.875 441.75 34.2273C440.932 33.5795 439.927 33.2557 438.733 33.2557C437.552 33.2557 436.552 33.5682 435.733 34.1932C434.927 34.8182 434.307 35.7045 433.875 36.8523C433.444 38 433.228 39.3523 433.228 40.9091ZM467.951 54.5114C465.258 54.5114 462.939 53.9659 460.996 52.875C459.064 51.7727 457.576 50.2159 456.53 48.2045C455.485 46.1818 454.962 43.7898 454.962 41.0284C454.962 38.3352 455.485 35.9716 456.53 33.9375C457.576 31.9034 459.047 30.3182 460.945 29.1818C462.854 28.0455 465.093 27.4773 467.661 27.4773C469.388 27.4773 470.996 27.7557 472.485 28.3125C473.985 28.858 475.292 29.6818 476.405 30.7841C477.53 31.8864 478.405 33.2727 479.03 34.9432C479.655 36.6023 479.968 38.5455 479.968 40.7727V42.767H457.86V38.267H473.133C473.133 37.2216 472.905 36.2955 472.451 35.4886C471.996 34.6818 471.366 34.0511 470.559 33.5966C469.763 33.1307 468.837 32.8977 467.78 32.8977C466.678 32.8977 465.701 33.1534 464.849 33.6648C464.008 34.1648 463.349 34.8409 462.871 35.6932C462.394 36.5341 462.15 37.4716 462.138 38.5057V42.7841C462.138 44.0795 462.377 45.1989 462.854 46.142C463.343 47.0852 464.03 47.8125 464.917 48.3239C465.803 48.8352 466.854 49.0909 468.07 49.0909C468.877 49.0909 469.616 48.9773 470.286 48.75C470.956 48.5227 471.53 48.1818 472.008 47.7273C472.485 47.2727 472.849 46.7159 473.099 46.0568L479.814 46.5C479.474 48.1136 478.775 49.5227 477.718 50.7273C476.672 51.9205 475.32 52.8523 473.661 53.5227C472.013 54.1818 470.11 54.5114 467.951 54.5114ZM484.226 54V27.8182H491.266V32.3864H491.539C492.016 30.7614 492.817 29.5341 493.942 28.7045C495.067 27.8636 496.363 27.4432 497.829 27.4432C498.192 27.4432 498.584 27.4659 499.005 27.5114C499.425 27.5568 499.795 27.6193 500.113 27.6989V34.142C499.772 34.0398 499.3 33.9489 498.698 33.8693C498.096 33.7898 497.545 33.75 497.045 33.75C495.976 33.75 495.022 33.983 494.181 34.4489C493.351 34.9034 492.692 35.5398 492.204 36.358C491.726 37.1761 491.488 38.1193 491.488 39.1875V54H484.226ZM525.171 35.2841L518.523 35.6932C518.41 35.125 518.166 34.6136 517.791 34.1591C517.416 33.6932 516.921 33.3239 516.308 33.0511C515.705 32.767 514.984 32.625 514.143 32.625C513.018 32.625 512.069 32.8636 511.296 33.3409C510.523 33.8068 510.137 34.4318 510.137 35.2159C510.137 35.8409 510.387 36.3693 510.887 36.8011C511.387 37.233 512.245 37.5795 513.461 37.8409L518.2 38.7955C520.745 39.3182 522.643 40.1591 523.893 41.3182C525.143 42.4773 525.768 44 525.768 45.8864C525.768 47.6023 525.262 49.108 524.251 50.4034C523.251 51.6989 521.876 52.7102 520.126 53.4375C518.387 54.1534 516.381 54.5114 514.109 54.5114C510.643 54.5114 507.881 53.7898 505.825 52.3466C503.779 50.892 502.58 48.9148 502.228 46.4148L509.37 46.0398C509.586 47.0966 510.109 47.9034 510.938 48.4602C511.768 49.0057 512.83 49.2784 514.126 49.2784C515.398 49.2784 516.421 49.0341 517.194 48.5455C517.978 48.0455 518.376 47.4034 518.387 46.6193C518.376 45.9602 518.097 45.4205 517.552 45C517.006 44.5682 516.166 44.2386 515.029 44.0114L510.495 43.108C507.938 42.5966 506.035 41.7102 504.785 40.4489C503.546 39.1875 502.927 37.5795 502.927 35.625C502.927 33.9432 503.381 32.4943 504.291 31.2784C505.211 30.0625 506.501 29.125 508.16 28.4659C509.83 27.8068 511.785 27.4773 514.023 27.4773C517.33 27.4773 519.933 28.1761 521.83 29.5739C523.739 30.9716 524.853 32.875 525.171 35.2841ZM529.86 63.8182V27.8182H537.019V32.2159H537.343C537.661 31.5114 538.122 30.7955 538.724 30.0682C539.337 29.3295 540.133 28.7159 541.11 28.2273C542.099 27.7273 543.326 27.4773 544.792 27.4773C546.701 27.4773 548.462 27.9773 550.076 28.9773C551.69 29.9659 552.98 31.4602 553.945 33.4602C554.911 35.4489 555.394 37.9432 555.394 40.9432C555.394 43.8636 554.923 46.3295 553.98 48.3409C553.048 50.3409 551.775 51.858 550.161 52.892C548.559 53.9148 546.764 54.4261 544.775 54.4261C543.366 54.4261 542.167 54.1932 541.178 53.7273C540.201 53.2614 539.4 52.6761 538.775 51.9716C538.15 51.2557 537.673 50.5341 537.343 49.8068H537.122V63.8182H529.86ZM536.968 40.9091C536.968 42.4659 537.184 43.8239 537.616 44.983C538.048 46.142 538.673 47.0455 539.491 47.6932C540.309 48.3295 541.303 48.6477 542.474 48.6477C543.656 48.6477 544.656 48.3239 545.474 47.6761C546.292 47.017 546.911 46.108 547.332 44.9489C547.764 43.7784 547.98 42.4318 547.98 40.9091C547.98 39.3977 547.769 38.0682 547.349 36.9205C546.928 35.7727 546.309 34.875 545.491 34.2273C544.673 33.5795 543.667 33.2557 542.474 33.2557C541.292 33.2557 540.292 33.5682 539.474 34.1932C538.667 34.8182 538.048 35.7045 537.616 36.8523C537.184 38 536.968 39.3523 536.968 40.9091ZM567.221 54.4943C565.551 54.4943 564.062 54.2045 562.755 53.625C561.448 53.0341 560.414 52.1648 559.653 51.017C558.903 49.858 558.528 48.4148 558.528 46.6875C558.528 45.233 558.795 44.0114 559.329 43.0227C559.863 42.0341 560.59 41.2386 561.511 40.6364C562.431 40.0341 563.477 39.5795 564.647 39.2727C565.829 38.9659 567.068 38.75 568.363 38.625C569.886 38.4659 571.113 38.3182 572.045 38.1818C572.977 38.0341 573.653 37.8182 574.073 37.5341C574.494 37.25 574.704 36.8295 574.704 36.2727V36.1705C574.704 35.0909 574.363 34.2557 573.681 33.6648C573.011 33.0739 572.056 32.7784 570.818 32.7784C569.511 32.7784 568.471 33.0682 567.698 33.6477C566.926 34.2159 566.414 34.9318 566.164 35.7955L559.448 35.25C559.789 33.6591 560.46 32.2841 561.46 31.125C562.46 29.9545 563.75 29.0568 565.329 28.4318C566.92 27.7955 568.761 27.4773 570.852 27.4773C572.306 27.4773 573.698 27.6477 575.028 27.9886C576.369 28.3295 577.556 28.858 578.59 29.5739C579.636 30.2898 580.46 31.2102 581.062 32.3352C581.664 33.4489 581.965 34.7841 581.965 36.3409V54H575.079V50.3693H574.875C574.454 51.1875 573.892 51.9091 573.187 52.5341C572.483 53.1477 571.636 53.6307 570.647 53.983C569.659 54.3239 568.517 54.4943 567.221 54.4943ZM569.301 49.483C570.369 49.483 571.312 49.2727 572.13 48.8523C572.948 48.4205 573.59 47.8409 574.056 47.1136C574.522 46.3864 574.755 45.5625 574.755 44.642V41.8636C574.528 42.0114 574.215 42.1477 573.818 42.2727C573.431 42.3864 572.994 42.4943 572.505 42.5966C572.017 42.6875 571.528 42.7727 571.039 42.8523C570.551 42.9205 570.108 42.983 569.71 43.0398C568.858 43.1648 568.113 43.3636 567.477 43.6364C566.84 43.9091 566.346 44.2784 565.994 44.7443C565.642 45.1989 565.465 45.767 565.465 46.4489C565.465 47.4375 565.823 48.1932 566.539 48.7159C567.267 49.2273 568.187 49.483 569.301 49.483ZM598.949 54.5114C596.267 54.5114 593.96 53.9432 592.028 52.8068C590.108 51.6591 588.63 50.0682 587.596 48.0341C586.574 46 586.062 43.6591 586.062 41.0114C586.062 38.3295 586.579 35.9773 587.613 33.9545C588.659 31.9205 590.142 30.3352 592.062 29.1989C593.983 28.0511 596.267 27.4773 598.914 27.4773C601.199 27.4773 603.199 27.892 604.914 28.7216C606.63 29.5511 607.988 30.7159 608.988 32.2159C609.988 33.7159 610.539 35.4773 610.642 37.5H603.789C603.596 36.1932 603.085 35.142 602.255 34.3466C601.437 33.5398 600.363 33.1364 599.034 33.1364C597.909 33.1364 596.926 33.4432 596.085 34.0568C595.255 34.6591 594.608 35.5398 594.142 36.6989C593.676 37.858 593.443 39.2614 593.443 40.9091C593.443 42.5795 593.67 44 594.125 45.1705C594.591 46.3409 595.244 47.233 596.085 47.8466C596.926 48.4602 597.909 48.767 599.034 48.767C599.863 48.767 600.608 48.5966 601.267 48.2557C601.937 47.9148 602.488 47.4205 602.92 46.7727C603.363 46.1136 603.653 45.3239 603.789 44.4034H610.642C610.528 46.4034 609.983 48.1648 609.005 49.6875C608.039 51.1989 606.704 52.3807 605 53.233C603.295 54.0852 601.278 54.5114 598.949 54.5114ZM626.743 54.5114C624.05 54.5114 621.731 53.9659 619.788 52.875C617.856 51.7727 616.368 50.2159 615.322 48.2045C614.277 46.1818 613.754 43.7898 613.754 41.0284C613.754 38.3352 614.277 35.9716 615.322 33.9375C616.368 31.9034 617.839 30.3182 619.737 29.1818C621.646 28.0455 623.885 27.4773 626.453 27.4773C628.18 27.4773 629.788 27.7557 631.277 28.3125C632.777 28.858 634.084 29.6818 635.197 30.7841C636.322 31.8864 637.197 33.2727 637.822 34.9432C638.447 36.6023 638.76 38.5455 638.76 40.7727V42.767H616.652V38.267H631.925C631.925 37.2216 631.697 36.2955 631.243 35.4886C630.788 34.6818 630.157 34.0511 629.351 33.5966C628.555 33.1307 627.629 32.8977 626.572 32.8977C625.47 32.8977 624.493 33.1534 623.64 33.6648C622.8 34.1648 622.14 34.8409 621.663 35.6932C621.186 36.5341 620.942 37.4716 620.93 38.5057V42.7841C620.93 44.0795 621.169 45.1989 621.646 46.142C622.135 47.0852 622.822 47.8125 623.709 48.3239C624.595 48.8352 625.646 49.0909 626.862 49.0909C627.669 49.0909 628.407 48.9773 629.078 48.75C629.748 48.5227 630.322 48.1818 630.8 47.7273C631.277 47.2727 631.64 46.7159 631.89 46.0568L638.606 46.5C638.265 48.1136 637.567 49.5227 636.51 50.7273C635.464 51.9205 634.112 52.8523 632.453 53.5227C630.805 54.1818 628.902 54.5114 626.743 54.5114ZM679.062 43.0398L655.062 53.608V46.7045L671.494 40.108L671.273 40.4659V39.6136L671.494 39.9716L655.062 33.375V26.4716L679.062 37.0398V43.0398Z" fill="#52FF58"/>
<g clip-path="url(#clip0_68_18)">
<rect y="1" width="74" height="74" rx="37" fill="#52FF58"/>
<path d="M58.0511 54H50.142L62.1932 19.0909H71.7045L83.7386 54H75.8295L67.0852 27.0682H66.8125L58.0511 54ZM57.5568 40.2784H76.2386V46.0398H57.5568V40.2784Z" fill="black"/>
<path d="M24.3125 43.0398V37.0398L48.3125 26.4716V33.375L31.8807 39.9716L32.1023 39.6136V40.4659L31.8807 40.108L48.3125 46.7045V53.608L24.3125 43.0398Z" fill="black"/>
</g>
<defs>
<clipPath id="clip0_68_18">
<rect width="74" height="74" rx="37" fill="white"/>
</clipPath>
</defs>
</svg>
