<svg width="74" height="74" viewBox="0 0 74 74" fill="none" xmlns="http://www.w3.org/2000/svg">
<g clip-path="url(#clip0_137_306)">
<rect y="1" width="74" height="74" rx="37" fill="#121C2F"/>
<path d="M4.15625 41.5199V38.5199L16.1562 33.2358V36.6875L7.94034 39.9858L8.05114 39.8068V40.233L7.94034 40.054L16.1562 43.3523V46.804L4.15625 41.5199Z" fill="#B9CCFF"/>
<path d="M31.0341 46H25.7614L33.7955 22.7273H40.1364L48.1591 46H42.8864L37.0568 28.0455H36.875L31.0341 46ZM30.7045 36.8523H43.1591V40.6932H30.7045V36.8523Z" fill="#B9CCFF"/>
<path d="M68.8438 38.4801L68.8438 41.4801L56.8438 46.7642L56.8438 43.3125L65.0597 40.0142L64.9489 40.1932L64.9489 39.767L65.0597 39.946L56.8438 36.6477L56.8438 33.196L68.8438 38.4801Z" fill="#B9CCFF"/>
</g>
<defs>
<clipPath id="clip0_137_306">
<rect width="74" height="74" rx="37" fill="white"/>
</clipPath>
</defs>
</svg>
