<svg width="74" height="74" viewBox="0 0 74 74" fill="none" xmlns="http://www.w3.org/2000/svg">
<g clip-path="url(#clip0_124_27)">
<rect y="1" width="74" height="74" rx="37" fill="#52FF58"/>
<path d="M4.15625 45.5199V42.5199L16.1562 37.2358V40.6875L7.94034 43.9858L8.05114 43.8068V44.233L7.94034 44.054L16.1562 47.3523V50.804L4.15625 45.5199Z" fill="black"/>
<path d="M29.5426 51H22.9517L32.9943 21.9091H40.9205L50.9489 51H44.358L37.071 28.5568H36.8438L29.5426 51ZM29.1307 39.5653H44.6989V44.3665H29.1307V39.5653Z" fill="black"/>
<path d="M68.8438 42.4801L68.8438 45.4801L56.8438 50.7642L56.8438 47.3125L65.0597 44.0142L64.9489 44.1932L64.9489 43.767L65.0597 43.946L56.8438 40.6477L56.8438 37.196L68.8438 42.4801Z" fill="black"/>
</g>
<defs>
<clipPath id="clip0_124_27">
<rect width="74" height="74" rx="37" fill="white"/>
</clipPath>
</defs>
</svg>
