<svg width="135" height="135" viewBox="0 0 135 135" fill="none" xmlns="http://www.w3.org/2000/svg">
<path d="M69 135C51.4957 135 34.7084 128.046 22.331 115.669C9.95355 103.292 3 86.5043 3 69C3 51.4957 9.95354 34.7084 22.3309 22.331C34.7083 9.95355 51.4957 3 69 3L69 69L69 135Z" fill="#52FF58"/>
<line x1="70.4182" y1="74.9084" x2="59.4177" y2="79.9725" stroke="white" stroke-width="2"/>
<line x1="69.4377" y1="74.8269" x2="44.4377" y2="57.8269" stroke="white" stroke-width="2"/>
<line x1="69.0002" y1="74.5" x2="70.0009" y2="74.5004" stroke="white"/>
<path d="M11 71.3281L2.75 76.0913L2.75 66.565L11 71.3281Z" fill="black"/>
<path d="M69.5 11L74.2631 2.75L64.7369 2.75L69.5 11Z" fill="black"/>
</svg>
