<svg width="135" height="135" viewBox="0 0 135 135" fill="none" xmlns="http://www.w3.org/2000/svg">
<path d="M69 135C55.9464 135 43.186 131.129 32.3324 123.877C21.4787 116.625 13.0193 106.317 8.02394 94.2571C3.02856 82.1972 1.72154 68.9268 4.26817 56.124C6.81479 43.3213 13.1007 31.5612 22.331 22.3309C31.5612 13.1007 43.3213 6.81479 56.124 4.26817C68.9268 1.72154 82.1972 3.02856 94.2571 8.02395C106.317 13.0193 116.625 21.4787 123.877 32.3324C131.129 43.186 135 55.9464 135 69L69 69L69 135Z" fill="#52FF58"/>
<line x1="108.483" y1="49.8754" x2="59.483" y2="76.9394" stroke="white" stroke-width="2"/>
<line x1="69.4377" y1="71.8269" x2="44.4377" y2="54.8269" stroke="white" stroke-width="2"/>
<path d="M11 68.3281L2.75 73.0913L2.75 63.565L11 68.3281Z" fill="black"/>
<path d="M69.5 11L74.2631 2.75L64.7369 2.75L69.5 11Z" fill="black"/>
</svg>
